<?xml version="1.0" standalone="no"?>
<!DOCTYPE svg PUBLIC "-//W3C//DTD SVG 20010904//EN"
 "http://www.w3.org/TR/2001/REC-SVG-20010904/DTD/svg10.dtd">
<svg version="1.0" xmlns="http://www.w3.org/2000/svg"
 width="1270.000000pt" height="1800.000000pt" viewBox="0 0 1270.000000 1800.000000"
 preserveAspectRatio="xMidYMid meet">

<g transform="translate(0.000000,1800.000000) scale(0.100000,-0.100000)"
fill="#000000" stroke="none">
<path d="M7488 15906 c-42 -70 -66 -165 -78 -303 -23 -284 -49 -380 -139 -513
-17 -25 -31 -56 -31 -70 0 -63 71 -123 183 -155 45 -13 89 -16 195 -13 124 3
141 5 182 28 29 16 51 38 63 63 18 36 18 43 3 147 -11 73 -16 179 -16 324 0
118 -5 249 -11 292 -10 74 -51 206 -71 232 -7 8 -47 12 -132 12 l-121 0 -27
-44z"/>
<path d="M4880 15765 c-53 -17 -97 -55 -116 -101 -20 -48 -17 -163 7 -300 27
-152 22 -243 -16 -334 -39 -91 -46 -200 -16 -258 29 -57 82 -89 177 -109 146
-30 344 13 432 92 100 90 104 174 14 256 -61 56 -92 99 -124 174 -24 55 -35
107 -69 340 -29 204 -131 289 -289 240z"/>
<path d="M9605 14888 c-43 -15 -75 -47 -97 -98 -17 -38 -21 -78 -28 -250 -9
-232 -15 -257 -90 -345 -107 -127 -107 -230 2 -315 79 -63 145 -83 258 -78
119 6 198 34 257 92 32 32 43 52 48 87 7 47 2 69 -49 238 -30 97 -32 158 -10
321 21 164 7 248 -52 304 -52 48 -167 69 -239 44z"/>
<path d="M7365 14713 c-47 -10 -112 -37 -143 -60 -93 -69 -97 -166 -18 -422
39 -126 56 -242 56 -377 0 -219 -45 -353 -180 -539 -90 -125 -110 -166 -110
-233 0 -64 25 -117 81 -171 80 -79 200 -112 404 -115 122 -1 133 1 174 24 95
54 103 130 35 312 -25 68 -52 155 -59 194 -13 64 -12 80 5 160 76 357 92 423
130 534 25 70 88 205 118 248 60 88 74 197 34 263 -38 61 -175 144 -289 174
-53 14 -190 19 -238 8z"/>
<path d="M4990 14539 c-115 -19 -240 -102 -280 -185 -37 -75 -14 -154 90 -316
23 -34 63 -108 90 -163 152 -312 166 -587 44 -876 -29 -71 -41 -173 -25 -222
28 -84 120 -126 296 -134 238 -11 426 56 460 165 13 42 -4 88 -67 183 -115
175 -172 330 -198 543 -20 156 -6 320 55 676 34 196 -15 264 -230 319 -63 16
-175 21 -235 10z"/>
<path d="M11258 13703 c-82 -40 -97 -88 -108 -343 -4 -109 -13 -211 -20 -230
-7 -19 -36 -66 -65 -105 -80 -106 -93 -140 -87 -226 3 -39 72 -111 144 -149
84 -45 200 -53 305 -22 190 58 227 140 156 347 -27 79 -28 83 -28 345 0 300
-4 319 -77 367 -52 35 -165 43 -220 16z"/>
<path d="M9410 13693 c-54 -9 -122 -36 -151 -60 -69 -59 -74 -115 -25 -300 18
-70 44 -174 56 -230 l23 -102 -22 -93 c-28 -114 -60 -177 -146 -292 -116 -156
-132 -215 -75 -279 34 -40 140 -98 219 -121 120 -35 293 -11 357 49 44 41 45
86 6 170 -40 84 -56 156 -56 255 1 148 26 235 148 505 94 206 110 254 102 300
-10 51 -44 85 -134 133 -107 56 -214 80 -302 65z"/>
<path d="M7220 12609 c-83 -10 -302 -61 -352 -83 -84 -35 -129 -126 -109 -217
5 -24 43 -110 84 -189 82 -164 128 -293 151 -425 18 -104 21 -284 5 -388 -22
-149 -88 -325 -178 -472 -24 -38 -50 -87 -57 -109 -32 -87 -5 -185 63 -230 99
-65 210 -80 491 -67 286 14 346 35 410 141 25 43 32 65 32 107 0 69 -23 113
-106 209 -36 41 -78 101 -92 132 l-27 57 2 251 c2 432 38 638 155 907 57 133
51 197 -27 266 -102 89 -268 130 -445 110z"/>
<path d="M5520 12554 c-163 -20 -403 -90 -497 -144 -30 -17 -64 -48 -79 -70
-23 -34 -26 -48 -22 -97 5 -64 21 -96 119 -228 101 -136 177 -300 226 -484 23
-85 26 -422 4 -516 -16 -72 -72 -254 -106 -345 -76 -200 28 -330 264 -330 98
0 302 32 415 65 204 59 306 142 306 248 0 57 -14 81 -102 172 -254 263 -310
509 -238 1040 35 264 43 348 38 441 -9 168 -71 237 -223 247 -38 3 -86 3 -105
1z"/>
<path d="M10990 12418 c-19 -5 -47 -19 -63 -30 -53 -38 -61 -72 -68 -308 -8
-232 -16 -280 -68 -385 -39 -77 -90 -130 -180 -190 -119 -78 -145 -128 -116
-220 34 -106 128 -171 320 -220 142 -35 186 -34 233 9 34 32 37 39 36 88 0 29
-4 92 -9 139 -14 157 31 284 187 520 42 63 102 139 133 169 86 84 102 130 71
204 -38 92 -146 163 -316 210 -104 28 -109 29 -160 14z"/>
<path d="M8965 12058 c-125 -14 -256 -79 -307 -154 -56 -81 -58 -190 -8 -319
51 -131 63 -198 57 -325 -25 -487 -81 -655 -272 -811 -154 -126 -181 -229 -95
-354 64 -94 208 -185 340 -216 165 -39 317 6 388 115 25 37 27 49 27 136 -1
78 -7 114 -33 200 -19 61 -40 160 -49 235 -14 112 -15 145 -4 245 28 251 112
418 318 634 108 113 143 177 143 261 0 70 -30 133 -96 199 -124 123 -253 172
-409 154z"/>
<path d="M10277 11046 c-48 -18 -63 -30 -92 -80 -16 -27 -27 -69 -34 -126 -34
-275 -44 -340 -62 -409 -38 -141 -109 -269 -203 -365 -68 -69 -126 -108 -257
-172 -123 -61 -158 -97 -166 -168 -12 -105 129 -257 332 -358 145 -72 232
-101 281 -94 70 9 112 34 134 77 17 32 20 59 20 171 0 83 6 157 15 197 19 79
79 208 136 292 56 83 226 253 359 359 133 107 176 153 196 213 14 43 14 51 -1
98 -31 94 -198 231 -386 318 -132 61 -200 72 -272 47z"/>
<path d="M1195 10761 c-54 -25 -90 -67 -105 -124 -11 -41 -10 -59 5 -129 35
-162 109 -333 208 -478 74 -107 251 -281 324 -317 113 -55 221 -31 308 69 101
116 104 231 11 376 -100 157 -228 299 -420 468 -171 150 -239 178 -331 135z"/>
<path d="M5548 10220 c-203 -29 -318 -143 -318 -314 0 -79 36 -212 85 -321 8
-16 27 -59 43 -95 16 -36 45 -99 65 -140 220 -470 372 -972 422 -1395 35 -302
30 -508 -21 -824 -24 -150 -33 -336 -18 -398 23 -95 89 -168 182 -203 124 -47
198 -53 707 -56 811 -5 1162 -45 1645 -191 142 -43 164 -47 260 -48 96 0 110
3 163 29 132 64 191 201 217 506 41 491 146 886 331 1247 98 189 219 358 390
539 201 215 285 418 222 540 -57 108 -231 184 -422 184 -142 0 -228 -32 -323
-119 -119 -108 -178 -287 -178 -535 0 -197 -41 -507 -95 -711 -68 -260 -236
-670 -321 -783 -49 -63 -137 -82 -202 -42 -61 37 -73 84 -73 287 -1 171 1 186
40 371 74 351 149 597 273 887 80 189 229 468 304 570 12 17 36 59 54 95 57
112 39 206 -54 288 -105 92 -409 182 -614 182 -104 0 -134 -13 -199 -84 -110
-120 -130 -266 -84 -604 22 -159 32 -469 21 -645 -25 -395 -72 -587 -239 -987
-49 -117 -71 -156 -108 -192 -32 -31 -39 -33 -99 -33 -63 0 -67 2 -99 37 -44
48 -61 107 -80 286 -38 353 -45 425 -56 572 -41 551 49 1007 270 1359 78 123
89 144 107 207 37 127 -3 251 -113 354 -182 170 -549 241 -750 144 -69 -33
-153 -128 -201 -224 -35 -72 -37 -80 -40 -197 -5 -138 9 -201 74 -339 100
-214 149 -410 175 -694 14 -166 7 -1014 -10 -1125 -26 -164 -63 -331 -82 -372
-35 -74 -114 -112 -164 -79 -33 22 -52 65 -173 391 -107 288 -165 469 -211
660 -76 317 -85 389 -85 690 0 264 7 324 59 540 76 318 48 516 -95 652 -50 49
-148 98 -232 118 -82 19 -264 26 -350 15z"/>
<path d="M2159 9735 c-205 -50 -473 -242 -542 -387 -47 -100 -34 -183 41 -250
52 -47 75 -59 192 -98 375 -126 600 -371 710 -775 70 -260 78 -279 120 -328
77 -87 179 -98 337 -38 110 43 195 101 290 198 90 92 153 199 153 260 0 93
-83 163 -263 223 -220 72 -502 383 -626 689 -31 76 -35 100 -41 211 -10 180
-41 248 -135 291 -48 22 -153 24 -236 4z"/>
<path d="M3689 8096 c-203 -56 -442 -251 -535 -435 -36 -72 -38 -195 -5 -265
35 -71 106 -128 224 -178 429 -181 764 -441 1047 -813 62 -81 121 -174 292
-459 65 -108 174 -223 243 -256 75 -35 157 -32 240 9 121 60 314 266 394 423
35 68 41 89 41 142 0 51 -5 70 -29 108 -48 75 -121 123 -386 253 -411 201
-629 362 -827 610 -122 153 -198 300 -273 532 -77 233 -128 298 -262 329 -70
16 -103 16 -164 0z"/>
<path d="M6850 6325 c-248 -30 -551 -109 -726 -190 -245 -112 -364 -278 -364
-506 0 -266 173 -471 555 -659 202 -99 380 -153 645 -196 131 -22 201 -26 446
-31 313 -6 393 0 609 43 261 53 422 110 541 192 221 152 258 376 105 636 -89
151 -205 270 -374 382 -262 174 -566 289 -874 329 -137 18 -415 18 -563 0z"/>
<path d="M6030 4825 c-97 -31 -163 -122 -190 -260 -23 -118 -23 -430 -1 -785
12 -184 28 -447 36 -585 33 -579 57 -893 71 -942 17 -63 62 -118 107 -131 18
-6 66 -13 107 -16 41 -3 122 -18 180 -32 193 -49 292 -36 373 51 59 63 268
448 372 685 20 47 43 99 50 115 54 123 150 403 192 565 67 261 86 377 87 545
0 144 -2 166 -23 217 -46 117 -138 211 -281 290 -113 62 -497 206 -695 259
-135 37 -312 48 -385 24z"/>
<path d="M8165 4516 c-298 -58 -433 -240 -465 -629 -20 -237 7 -518 84 -902
32 -159 142 -596 167 -666 11 -30 38 -76 60 -101 77 -91 197 -108 472 -68 239
35 281 64 306 211 25 149 3 1041 -34 1359 -63 546 -130 712 -312 780 -72 27
-188 33 -278 16z"/>
<path d="M7850 450 c0 -5 5 -10 10 -10 6 0 10 5 10 10 0 6 -4 10 -10 10 -5 0
-10 -4 -10 -10z"/>
<path d="M8020 450 c0 -5 5 -10 11 -10 5 0 7 5 4 10 -3 6 -8 10 -11 10 -2 0
-4 -4 -4 -10z"/>
<path d="M8900 450 c0 -5 5 -10 10 -10 6 0 10 5 10 10 0 6 -4 10 -10 10 -5 0
-10 -4 -10 -10z"/>
<path d="M9967 453 c-4 -3 -7 -15 -7 -25 0 -10 -6 -18 -12 -18 -10 0 -10 -2
-1 -8 6 -4 13 -30 16 -57 l3 -50 2 53 c2 41 5 52 19 52 15 0 14 2 -3 14 -18
14 -18 15 -1 21 9 4 17 11 17 16 0 10 -24 12 -33 2z"/>
<path d="M10876 430 c-8 -16 -11 -30 -6 -30 5 0 11 -24 13 -52 l3 -53 2 52 c2
40 6 53 20 56 16 4 16 5 0 6 -22 1 -24 31 -3 31 8 0 15 5 15 10 0 22 -29 8
-44 -20z"/>
<path d="M11900 450 c0 -5 5 -10 11 -10 5 0 7 5 4 10 -3 6 -8 10 -11 10 -2 0
-4 -4 -4 -10z"/>
<path d="M7700 443 c0 -21 48 -137 57 -140 6 -2 22 28 37 67 29 80 29 80 18
80 -5 0 -17 -27 -27 -60 -10 -33 -22 -60 -26 -60 -4 0 -15 24 -24 53 -17 51
-35 82 -35 60z"/>
<path d="M8780 375 c0 -43 4 -75 10 -75 6 0 10 11 10 25 0 14 4 25 10 25 5 0
17 -11 26 -25 9 -14 21 -25 26 -25 6 0 3 10 -6 23 -28 38 -29 47 -11 67 10 11
13 20 7 20 -7 0 -17 -9 -24 -20 -19 -30 -28 -24 -28 20 0 22 -4 40 -10 40 -6
0 -10 -32 -10 -75z"/>
<path d="M9030 426 c0 -19 -4 -22 -25 -18 -32 6 -55 -13 -55 -45 0 -52 38 -81
68 -51 9 9 12 9 12 0 0 -7 5 -12 10 -12 6 0 10 32 10 75 0 43 -4 75 -10 75 -5
0 -10 -11 -10 -24z m-2 -59 c3 -27 -12 -57 -29 -57 -5 0 -16 11 -24 24 -13 20
-14 29 -5 46 17 31 54 23 58 -13z"/>
<path d="M9290 426 c0 -20 -4 -23 -36 -22 -32 1 -38 -3 -46 -27 -17 -48 43
-106 68 -65 5 8 2 9 -11 5 -38 -15 -63 46 -29 74 25 20 49 -1 49 -44 1 -20 4
-39 8 -43 4 -4 7 27 7 69 0 43 -2 77 -5 77 -3 0 -5 -11 -5 -24z"/>
<path d="M9340 375 c0 -43 4 -75 10 -75 6 0 10 32 10 75 0 43 -4 75 -10 75 -6
0 -10 -32 -10 -75z"/>
<path d="M11950 375 c0 -43 4 -75 10 -75 6 0 10 32 10 75 0 43 -4 75 -10 75
-6 0 -10 -32 -10 -75z"/>
<path d="M8080 426 c0 -8 -6 -17 -12 -19 -10 -4 -10 -6 0 -6 8 -1 12 -17 12
-46 0 -32 5 -47 15 -52 9 -3 19 -2 23 2 4 4 1 10 -5 12 -8 3 -13 21 -13 43 0
21 6 41 13 43 10 4 10 6 0 6 -7 1 -13 8 -13 16 0 8 -4 15 -10 15 -5 0 -10 -6
-10 -14z"/>
<path d="M11455 431 c3 -5 1 -13 -5 -16 -7 -5 -8 -11 -1 -19 5 -6 11 -29 13
-51 2 -31 8 -41 23 -43 19 -3 19 -2 3 11 -11 9 -18 28 -18 50 0 25 5 37 18 40
16 4 16 5 0 6 -10 0 -18 8 -18 16 0 8 -5 15 -11 15 -5 0 -8 -4 -4 -9z"/>
<path d="M10985 410 c-4 -6 -13 -9 -21 -6 -11 4 -14 -6 -12 -52 1 -49 2 -51 5
-15 3 29 11 47 25 58 12 8 19 17 16 20 -3 4 -9 1 -13 -5z"/>
<path d="M7850 355 c0 -30 5 -55 10 -55 6 0 10 25 10 55 0 30 -4 55 -10 55 -5
0 -10 -25 -10 -55z"/>
<path d="M7906 394 c-9 -23 -9 -24 29 -40 19 -8 35 -19 35 -24 0 -16 -30 -24
-43 -11 -17 17 -31 13 -17 -4 16 -19 54 -19 70 0 18 22 6 41 -29 48 -20 4 -31
13 -31 23 0 13 6 15 30 10 19 -3 29 -2 25 4 -10 16 -62 12 -69 -6z"/>
<path d="M8020 353 c0 -31 3 -54 6 -50 9 9 10 107 2 107 -5 0 -8 -26 -8 -57z"/>
<path d="M8218 355 c8 -30 19 -55 23 -55 5 0 14 18 20 40 15 49 25 51 33 5 12
-65 32 -52 51 34 4 21 4 31 -3 27 -5 -3 -13 -22 -16 -41 -8 -43 -21 -38 -30
10 -9 46 -22 44 -37 -5 -14 -46 -24 -44 -33 5 -4 19 -11 35 -15 35 -5 0 -1
-25 7 -55z"/>
<path d="M8380 407 c0 -19 33 -107 40 -107 5 0 12 16 16 35 9 50 21 52 35 5 7
-22 16 -40 20 -40 5 0 13 18 19 41 6 22 14 47 17 55 3 8 1 14 -5 14 -5 0 -13
-16 -16 -35 -10 -49 -23 -52 -31 -5 -8 49 -30 52 -39 5 -10 -49 -23 -52 -31
-5 -4 22 -11 40 -16 40 -5 0 -9 -1 -9 -3z"/>
<path d="M8569 358 c10 -29 22 -52 27 -51 5 1 13 18 18 37 12 46 22 46 33 -1
12 -54 26 -50 44 12 9 30 13 55 8 55 -4 0 -14 -19 -20 -42 l-12 -43 -14 43
c-8 23 -19 42 -23 42 -5 0 -14 -18 -20 -40 -6 -22 -13 -40 -15 -40 -2 0 -9 18
-15 40 -6 22 -15 40 -20 40 -5 0 -1 -24 9 -52z"/>
<path d="M8900 355 c0 -30 5 -55 10 -55 6 0 10 25 10 55 0 30 -4 55 -10 55 -5
0 -10 -25 -10 -55z"/>
<path d="M9096 402 c-3 -6 8 -9 25 -8 46 2 48 -21 4 -30 -65 -12 -54 -66 12
-61 l34 2 -3 50 c-3 48 -4 50 -35 53 -17 2 -34 -1 -37 -6z m64 -56 c0 -20 -27
-39 -45 -32 -8 3 -15 12 -15 20 0 13 9 17 53 25 4 0 7 -5 7 -13z"/>
<path d="M9460 391 c-25 -48 7 -99 55 -87 14 4 25 11 25 17 0 6 -7 6 -21 -1
-27 -15 -49 3 -49 42 0 33 23 47 51 30 26 -16 34 -15 19 3 -18 22 -67 19 -80
-4z"/>
<path d="M9578 384 c-23 -50 37 -107 78 -74 17 15 19 71 2 88 -22 22 -67 14
-80 -14z m72 1 c15 -19 6 -61 -16 -69 -32 -12 -54 26 -38 68 8 20 38 21 54 1z"/>
<path d="M9711 355 l2 -60 7 50 c4 28 3 54 -1 60 -5 5 -8 -16 -8 -50z"/>
<path d="M9753 403 c13 -4 17 -15 17 -54 0 -63 18 -64 22 -1 3 39 6 47 23 47
17 0 20 -8 23 -47 2 -27 7 -48 13 -48 11 0 12 80 1 96 -4 7 -31 11 -62 11 -30
0 -47 -2 -37 -4z"/>
<path d="M10032 398 c-17 -17 -15 -64 4 -82 33 -34 84 -8 84 43 0 34 -17 51
-50 51 -14 0 -31 -5 -38 -12z m68 -18 c21 -39 -15 -85 -46 -59 -14 12 -19 60
-7 72 13 14 43 6 53 -13z"/>
<path d="M10150 353 c0 -29 5 -53 10 -53 6 0 10 20 10 45 0 38 4 47 23 54 19
8 18 9 -10 9 l-33 -1 0 -54z"/>
<path d="M10290 354 c0 -67 18 -72 22 -6 3 39 6 47 23 47 17 0 20 -8 23 -47 2
-27 7 -48 12 -48 5 0 10 21 12 48 3 39 6 47 23 47 17 0 21 -9 26 -50 l6 -50
-1 55 -1 55 -72 1 -73 2 0 -54z"/>
<path d="M10492 398 c-17 -17 -15 -73 2 -88 41 -33 101 24 78 74 -13 28 -58
36 -80 14z m64 -25 c8 -31 -6 -58 -32 -58 -25 0 -42 48 -24 69 20 25 49 20 56
-11z"/>
<path d="M10610 352 c0 -31 4 -51 10 -47 5 3 7 12 3 20 -9 26 7 65 30 75 19 7
18 8 -10 7 -33 -2 -33 -2 -33 -55z"/>
<path d="M10690 391 c-15 -29 -12 -56 8 -74 23 -21 56 -22 72 -2 15 18 7 19
-19 3 -15 -9 -23 -9 -35 1 -26 22 -19 31 24 31 32 0 40 4 40 18 0 42 -70 60
-90 23z m68 -13 c3 -14 -3 -18 -27 -18 -29 0 -41 17 -24 34 13 13 48 1 51 -16z"/>
<path d="M11029 386 c-16 -35 -4 -74 26 -82 29 -7 55 1 55 16 0 6 -7 6 -19 -2
-15 -9 -23 -9 -35 1 -26 22 -19 31 24 31 22 0 40 5 40 11 0 50 -71 69 -91 25z
m69 -8 c3 -14 -3 -18 -27 -18 -29 0 -41 17 -24 34 13 13 48 1 51 -16z"/>
<path d="M11162 398 c-7 -7 -12 -26 -12 -43 0 -36 15 -55 45 -55 24 0 52 16
43 25 -3 4 -15 1 -26 -6 -17 -10 -23 -10 -36 0 -26 22 -19 31 24 31 41 0 47 9
34 44 -7 19 -55 21 -72 4z m61 -12 c7 -18 -1 -26 -28 -26 -29 0 -37 10 -24 27
15 17 45 17 52 -1z"/>
<path d="M11337 403 c-16 -15 -5 -35 28 -49 19 -8 35 -19 35 -24 0 -17 -29
-23 -45 -10 -9 7 -19 10 -22 6 -10 -10 17 -26 44 -26 27 0 48 33 30 48 -6 5
-22 13 -34 16 -13 4 -23 14 -23 23 0 12 7 14 30 9 19 -3 29 -2 25 4 -7 11 -58
14 -68 3z"/>
<path d="M11529 386 c-16 -35 -4 -74 26 -82 29 -7 55 1 55 17 0 8 -4 8 -15 -1
-17 -14 -55 -4 -55 16 0 10 12 14 40 14 22 0 40 5 40 11 0 50 -71 69 -91 25z
m69 -8 c3 -14 -3 -18 -27 -18 -29 0 -41 17 -24 34 13 13 48 1 51 -16z"/>
<path d="M11650 354 c0 -30 5 -54 10 -54 6 0 10 20 10 45 0 32 5 47 15 51 25
10 47 -16 43 -52 -1 -18 1 -36 5 -41 5 -4 7 17 5 47 l-3 55 -42 1 -43 2 0 -54z"/>
<path d="M11778 384 c-24 -52 46 -112 82 -70 15 19 7 21 -19 4 -15 -9 -23 -9
-35 1 -37 31 -5 97 35 73 26 -16 34 -15 19 3 -21 25 -69 19 -82 -11z"/>
<path d="M11901 353 c1 -62 6 -56 11 15 2 23 0 42 -4 42 -5 0 -7 -26 -7 -57z"/>
<path d="M12006 394 c-9 -23 -9 -24 29 -40 19 -8 35 -19 35 -24 0 -16 -30 -24
-43 -11 -17 17 -31 13 -17 -4 16 -19 54 -19 70 0 18 22 6 41 -29 48 -20 4 -31
13 -31 23 0 13 6 15 30 10 19 -3 29 -2 25 4 -10 16 -62 12 -69 -6z"/>
<path d="M8726 321 c-4 -7 -5 -15 -2 -18 9 -9 19 4 14 18 -4 11 -6 11 -12 0z"/>
<path d="M9396 322 c-3 -6 -1 -14 5 -17 15 -10 25 3 12 16 -7 7 -13 7 -17 1z"/>
<path d="M8608 243 c232 -2 612 -2 845 0 232 1 42 2 -423 2 -465 0 -655 -1
-422 -2z"/>
</g>
</svg>
